<svg width="22" height="47" viewBox="0 0 22 47" fill="none" xmlns="http://www.w3.org/2000/svg">
<g style="mix-blend-mode:difference">
<path fill-rule="evenodd" clip-rule="evenodd" d="M22 0L22 9L3.99557 9L3.99557 10L22 10L22 19L0.0243636 19L0.0243638 15L18.0044 15L18.0044 14L-6.11959e-07 14L-2.18557e-07 5L18.0044 5L18.0044 4L0.0243643 4L0.0243645 -9.60586e-07L22 0ZM22 28L22 37L3.99557 37L3.99557 38L22 38L22 47L0.0243643 47L0.0243645 43L18.0044 43L18.0044 42L7.14703e-08 42L4.64873e-07 33L18.0044 33L18.0044 32L0.024365 32L0.0243652 28L22 28ZM22 27L22 20L0.0243636 20L0.0243634 24L8.0155 24L8.0155 27L12.0111 27L12.0111 24L18.0044 24L18.0044 27L22 27Z" fill="white"/>
</g>
</svg>
